<svg role="img" aria-label="Gamay illustration" viewBox="0 0 1600 900" xmlns="http://www.w3.org/2000/svg" preserveAspectRatio="xMidYMid slice">
  <defs>
    <pattern id="gm-benday" patternUnits="userSpaceOnUse" width="6" height="6">
      <circle cx="3" cy="3" r="1.5" fill="#e8dcc8" opacity="0.6"/>
    </pattern>
    <pattern id="gm-benday-red" patternUnits="userSpaceOnUse" width="4" height="4">
      <circle cx="2" cy="2" r="1.2" fill="#1a0a0e" opacity="0.5"/>
    </pattern>
  </defs>

  <!-- warm paper texture -->
  <rect width="1600" height="900" fill="#f2e4cc"/>

  <!-- bold red diagonal stripe (bistro awning feel) -->
  <polygon points="0,0 900,0 0,540" fill="#b82828"/>
  <polygon points="900,0 1600,0 1600,320 0,800 0,540" fill="#d43838" opacity="0.85"/>
  <polygon points="1600,320 1600,900 300,900 0,800" fill="#e8dcc8"/>

  <!-- white checkerboard pattern on the red (tablecloth) -->
  <g opacity="0.15">
    <rect x="0" y="0" width="60" height="60" fill="#fff"/>
    <rect x="120" y="0" width="60" height="60" fill="#fff"/>
    <rect x="240" y="0" width="60" height="60" fill="#fff"/>
    <rect x="360" y="0" width="60" height="60" fill="#fff"/>
    <rect x="480" y="0" width="60" height="60" fill="#fff"/>
    <rect x="600" y="0" width="60" height="60" fill="#fff"/>
    <rect x="720" y="0" width="60" height="60" fill="#fff"/>
    <rect x="840" y="0" width="60" height="60" fill="#fff"/>
    <rect x="60" y="60" width="60" height="60" fill="#fff"/>
    <rect x="180" y="60" width="60" height="60" fill="#fff"/>
    <rect x="300" y="60" width="60" height="60" fill="#fff"/>
    <rect x="420" y="60" width="60" height="60" fill="#fff"/>
    <rect x="540" y="60" width="60" height="60" fill="#fff"/>
    <rect x="660" y="60" width="60" height="60" fill="#fff"/>
    <rect x="780" y="60" width="60" height="60" fill="#fff"/>
  </g>

  <!-- A WINE BOTTLE with BEAUJOLAIS NOUVEAU label -->
  <g transform="translate(800, 370)">
    <!-- bottle body -->
    <path d="M -42 -80 Q -46 -76 -46 80 Q -46 140 -20 160 L 20 160 Q 46 140 46 80 Q 46 -76 42 -80 Z"
          fill="#284828"/>
    <!-- bottle neck -->
    <path d="M -22 -80 Q -22 -160 -18 -180 L 18 -180 Q 22 -160 22 -80 Z"
          fill="#284828"/>
    <!-- foil top -->
    <rect x="-26" y="-185" width="52" height="25" fill="#c89840" rx="3"/>
    <!-- label -->
    <rect x="-38" y="-20" width="76" height="100" fill="#f2e4cc" rx="3"/>
    <rect x="-34" y="-16" width="68" height="92" fill="none" stroke="#b82828" stroke-width="1.5" rx="2"/>
    <!-- label text -->
    <text x="0" y="6" text-anchor="middle" font-family="'Helvetica Neue', Arial, sans-serif"
          font-size="10" font-weight="900" letter-spacing="0.1em" fill="#b82828">BEAUJOLAIS</text>
    <text x="0" y="20" text-anchor="middle" font-family="Georgia, serif"
          font-size="14" font-style="italic" font-weight="700" fill="#284828">Nouveau</text>
    <!-- year on label -->
    <text x="0" y="42" text-anchor="middle" font-family="Georgia, serif"
          font-size="20" font-weight="700" fill="#b82828">'25</text>
    <!-- cru names -->
    <text x="0" y="62" text-anchor="middle" font-family="'Helvetica Neue', Arial, sans-serif"
          font-size="6" letter-spacing="0.15em" fill="#284828">MORGON · MOULIN-À-VENT</text>
  </g>

  <!-- a stem of gamay grapes tumbling out left -->
  <g transform="translate(620, 420)">
    <path d="M 60 -20 Q 120 -40 140 -10 Q 150 20 130 60"
          fill="none" stroke="#284828" stroke-width="3" stroke-linecap="round"/>
    <g fill="#6a2040">
      <circle cx="130" cy="-18" r="10"/><circle cx="146" cy="-8" r="10"/>
      <circle cx="136" cy="8" r="10"/><circle cx="148" cy="18" r="10"/>
      <circle cx="128" cy="30" r="10"/><circle cx="136" cy="48" r="9"/>
      <circle cx="124" cy="64" r="9"/>
    </g>
    <!-- highlights -->
    <g fill="#8a4868" opacity="0.6">
      <circle cx="126" cy="-22" r="3"/><circle cx="142" cy="-12" r="3"/>
      <circle cx="132" cy="4" r="3"/><circle cx="143" cy="14" r="3"/>
      <circle cx="124" cy="26" r="3"/>
    </g>
    <!-- leaf -->
    <path d="M 100 -32 Q 80 -60 100 -80 Q 120 -60 100 -32 Z"
          fill="#284828" opacity="0.8"/>
    <line x1="100" y1="-32" x2="100" y2="-80" stroke="#1a3428" stroke-width="1"/>
  </g>

  <!-- a slice of bread / baguette on right -->
  <g transform="translate(1100, 520) rotate(-10)">
    <ellipse cx="0" cy="0" rx="70" ry="24" fill="#d4a858" stroke="#b88840" stroke-width="1.5"/>
    <ellipse cx="0" cy="-6" rx="65" ry="18" fill="#e8c878"/>
    <!-- scoring marks -->
    <path d="M -30 -8 L -10 -14 M -5 -10 L 15 -16 M 20 -8 L 35 -12"
          fill="none" stroke="#c8a048" stroke-width="1.5" opacity="0.6"/>
  </g>

  <!-- bistro chair (side right, simplified) -->
  <g transform="translate(1260, 550)">
    <path d="M 0 0 L 0 60 M 30 0 L 30 60 M 0 60 L 30 60"
          fill="none" stroke="#1a1a1a" stroke-width="3" stroke-linecap="round"/>
    <path d="M -10 10 L 40 10 M -10 20 L 40 20"
          fill="none" stroke="#1a1a1a" stroke-width="2"/>
    <path d="M -6 50 Q 15 70 36 50" fill="none" stroke="#1a1a1a" stroke-width="2.5"/>
  </g>

  <!-- hand-lettered title in red -->
  <text x="160" y="180" font-family="'Helvetica Neue', 'Arial Black', sans-serif"
        font-size="80" font-weight="900" letter-spacing="-0.02em" fill="#f2e4cc">GAMAY</text>
  <text x="160" y="240" font-family="Georgia, serif" font-size="24"
        font-style="italic" letter-spacing="0.2em" fill="#f2e4cc">— beaujolais —</text>

  <!-- red circle starburst behind "Nouveau" context -->
  <circle cx="280" cy="420" r="30" fill="#b82828" opacity="0.8"/>
  <text x="280" y="426" text-anchor="middle" font-family="'Helvetica Neue', Arial, sans-serif"
        font-size="11" font-weight="900" fill="#f2e4cc">CRU</text>

  <!-- cru list on left -->
  <g font-family="Georgia, serif" font-size="12" fill="#1a1a1a" opacity="0.8">
    <text x="80" y="620">LES CRUS:</text>
    <text x="80" y="642">BROUILLY</text>
    <text x="80" y="660">CHÉNAS</text>
    <text x="80" y="678">CHIROUBLES</text>
    <text x="80" y="696">CÔTE DE BROUILLY</text>
    <text x="80" y="714">FLEURIE</text>
    <text x="80" y="732">JULIÉNAS</text>
    <text x="80" y="750">MORGON</text>
    <text x="80" y="768">MOULIN-À-VENT</text>
    <text x="80" y="786">RÉGNIÉ</text>
    <text x="80" y="804">SAINT-AMOUR</text>
  </g>

  <!-- small red star accent -->
  <g fill="#b82828">
    <polygon points="80,608 84,618 94,618 86,624 90,634 80,628 70,634 74,624 66,618 76,618"/>
  </g>

  <!-- bottom bistro line -->
  <line x1="0" y1="860" x2="1600" y2="860" stroke="#1a1a1a" stroke-width="0.8" opacity="0.3"/>
  <text x="800" y="882" text-anchor="middle" font-family="Georgia, serif"
        font-size="11" font-style="italic" fill="#1a1a1a" opacity="0.5">Le troisième jeudi de novembre · depuis 1951</text>
</svg>
