<svg role="img" aria-label="Gruner Veltliner illustration" viewBox="0 0 1600 900" xmlns="http://www.w3.org/2000/svg" preserveAspectRatio="xMidYMid slice">
  <defs>
    <linearGradient id="gv-greenbar" x1="0" y1="0" x2="1" y2="0">
      <stop offset="0%" stop-color="#8aaa50"/>
      <stop offset="100%" stop-color="#4a7828"/>
    </linearGradient>
    <linearGradient id="gv-greenbar2" x1="0" y1="0" x2="1" y2="0">
      <stop offset="0%" stop-color="#6a9840"/>
      <stop offset="100%" stop-color="#2a5818"/>
    </linearGradient>
  </defs>

  <!-- stark white background -->
  <rect width="1600" height="900" fill="#f5f3e8"/>

  <!-- large circular form (bubble/pepper) anchoring the composition -->
  <circle cx="1000" cy="400" r="300" fill="#d0dfb0" opacity="0.3"/>

  <!-- HORIZONTAL BANDS (Swiss typographic style) -->
  <rect x="0" y="120" width="1600" height="60" fill="url(#gv-greenbar)"/>
  <rect x="0" y="540" width="1600" height="12" fill="#2a5818"/>
  <rect x="0" y="560" width="1600" height="40" fill="url(#gv-greenbar2)"/>

  <!-- vertical rule (grid) -->
  <line x1="700" y1="0" x2="700" y2="900" stroke="#2a5818" stroke-width="2" opacity="0.15"/>

  <!-- alpine mountain peak (geometric bands, Swiss style) -->
  <g transform="translate(440, 280)" opacity="0.85">
    <!-- snow cap -->
    <polygon points="0,-120 -60,0 60,0" fill="#f5f3e8" stroke="#1a1a1a" stroke-width="2"/>
    <!-- north face -->
    <polygon points="-30,-60 -80,40 0,40" fill="#c0d0a0" stroke="#1a1a1a" stroke-width="1.5"/>
    <!-- south face -->
    <polygon points="0,-60 -80,40 60,40" fill="#a0b880" stroke="#1a1a1a" stroke-width="1.5"/>
    <!-- east face -->
    <polygon points="30,-60 0,40 60,40" fill="#8aaa50" stroke="#1a1a1a" stroke-width="1.5"/>
    <!-- base band -->
    <rect x="-100" y="40" width="200" height="20" fill="#4a7828" stroke="#1a1a1a" stroke-width="1.5"/>
    <!-- snow highlight -->
    <polygon points="0,-120 -20,-50 20,-50" fill="#fff" stroke="none" opacity="0.5"/>
  </g>

  <!-- PEPPERCORNS (scattered, geometric) -->
  <g fill="#1a1a1a">
    <circle cx="1150" cy="280" r="6"/>
    <circle cx="1200" cy="260" r="5"/>
    <circle cx="1180" cy="310" r="5"/>
    <circle cx="1230" cy="290" r="6"/>
    <circle cx="1160" cy="340" r="5"/>
    <circle cx="1210" cy="350" r="5"/>
    <circle cx="1240" cy="330" r="4"/>
    <circle cx="1120" cy="300" r="4"/>
    <!-- more scattered peppercorns -->
    <circle cx="1080" cy="350" r="4"/>
    <circle cx="1110" cy="380" r="3"/>
    <circle cx="1260" cy="370" r="4"/>
    <circle cx="1280" cy="310" r="3"/>
    <circle cx="1130" cy="240" r="3"/>
    <circle cx="1220" cy="230" r="4"/>
    <circle cx="1170" cy="400" r="3"/>
    <circle cx="1300" cy="340" r="3"/>
  </g>

  <!-- mortar & pestle (geometric, Swiss style) -->
  <g transform="translate(980, 460)" stroke="#1a1a1a">
    <!-- mortar bowl -->
    <path d="M -30 0 L -25 40 Q -20 50 0 50 Q 20 50 25 40 L 30 0 Z" fill="#d0d0c0" stroke-width="2"/>
    <ellipse cx="0" cy="0" rx="30" ry="6" fill="#e0e0d0" stroke-width="2"/>
    <!-- ground pepper inside -->
    <ellipse cx="0" cy="2" rx="20" ry="4" fill="#1a1a1a" stroke="none" opacity="0.6"/>
    <!-- pestle -->
    <path d="M -12 0 L -20 -50 Q -18 -56 -14 -56 Q -10 -56 -8 -50 L -8 0" fill="#c0c0b0" stroke-width="1.5"/>
    <ellipse cx="-14" cy="-56" rx="4" ry="2" fill="#d0d0c0" stroke-width="1"/>
  </g>

  <!-- green pepper (capsicum) icon -->
  <g transform="translate(1150, 450)">
    <path d="M 0 -40 Q 40 -40 45 -10 Q 50 20 30 50 Q 10 70 0 80 Q -10 70 -30 50 Q -50 20 -45 -10 Q -40 -40 0 -40 Z"
          fill="none" stroke="#2a5818" stroke-width="2.5"/>
    <path d="M 0 -40 L 0 -60" stroke="#2a5818" stroke-width="2.5" stroke-linecap="round"/>
    <path d="M 0 -10 L 20 -20" stroke="#2a5818" stroke-width="1.5" opacity="0.5"/>
    <path d="M 0 -10 L -20 -20" stroke="#2a5818" stroke-width="1.5" opacity="0.5"/>
    <path d="M -10 20 L 10 20" stroke="#2a5818" stroke-width="2"/>
    <path d="M 0 -10 L 0 60" stroke="#2a5818" stroke-width="1" opacity="0.3"/>
  </g>

  <!-- Helvetica title (Swiss design) -->
  <g font-family="'Helvetica Neue', 'Helvetica', 'Arial', sans-serif" fill="#1a1a1a">
    <text x="80" y="90" font-size="11" font-weight="700" letter-spacing="0.3em" opacity="0.5">WEISS · WACHAU</text>
    <text x="80" y="250" font-size="64" font-weight="700" letter-spacing="-0.02em">GRÜNER</text>
    <text x="80" y="320" font-size="64" font-weight="700" letter-spacing="-0.02em">VELTLINER</text>
    <line x1="80" y1="345" x2="380" y2="345" stroke="#1a1a1a" stroke-width="2"/>
    <text x="80" y="380" font-size="14" font-weight="500" letter-spacing="0.28em" opacity="0.7">NIEDERÖSTERREICH</text>
  </g>

  <!-- bottom info bar -->
  <g font-family="'Helvetica Neue', Helvetica, Arial, sans-serif" fill="#f5f3e8" font-size="11" font-weight="500">
    <text x="80" y="585" letter-spacing="0.2em">GRÜNER VELTLINER · 2025</text>
    <text x="1480" y="585" text-anchor="end" letter-spacing="0.2em">STEINFEDER · FEDERSIEL · SMARAGD</text>
  </g>

  <!-- small green circle (accent) -->
  <circle cx="80" cy="480" r="16" fill="#4a7828"/>
  <text x="80" y="486" text-anchor="middle" font-family="'Helvetica Neue', Arial, sans-serif"
        font-size="14" font-weight="700" fill="#f5f3e8">GV</text>

  <!-- terroir data (minimal grid info) -->
  <g font-family="'Helvetica Neue', monospace" font-size="10" fill="#1a1a1a" opacity="0.4">
    <text x="1310" y="560" text-anchor="end">LOESS · 48° N · 200 m</text>
    <text x="1310" y="575" text-anchor="end">PFEFFER · MINERAL · STRAHLEND</text>
  </g>
</svg>
